#Comment line ignore any data following # character 
#Hierarchical Translation and Rotation (.htr) file 
[Header]	
#Header keywords are followed by a single value 
FileType HTR		#Single word string
DataType HTRS		#Translation followed by rotation and scale data
FileVersion 1		#integer
NumSegments 64		#integer
NumFrames 3		#integer
DataFrameRate 30		#integer, data frame rate in this file
EulerRotationOrder ZYX
CalibrationUnits mm
RotationUnits Degrees
GlobalAxisofGravity Y
BoneLengthAxis Y
ScaleFactor 1.00
[SegmentNames&Hierarchy]
#CHILD	PARENT
Pinger_Root GLOBAL
Pelvis Pinger_Root
L_Hip Pelvis
R_Hip Pelvis
Rear_Leg01 Pelvis
Spine1 Pelvis
L_Leg01 L_Hip
L_Leg02 L_Leg01
L_Leg03 L_Leg02
L_Foot L_Leg03
L_Toe1_01 L_Foot
L_Toe2_01 L_Foot
L_Toe3_01 L_Foot
planeAlignerLeft L_Foot
L_Toe1_02 L_Toe1_01
L_Toe1_03 L_Toe1_02
L_Toe2_02 L_Toe2_01
L_Toe2_03 L_Toe2_02
L_Toe3_02 L_Toe3_01
L_Toe3_03 L_Toe3_02
planeLockWeightLeft planeAlignerLeft
R_Leg01 R_Hip
R_Leg02 R_Leg01
R_Leg03 R_Leg02
R_Foot R_Leg03
planeAlignerRight R_Foot
R_Toe1_01 R_Foot
R_Toe2_01 R_Foot
R_Toe3_01 R_Foot
planeLockWeightRight planeAlignerRight
R_Toe1_02 R_Toe1_01
R_Toe1_03 R_Toe1_02
R_Toe2_02 R_Toe2_01
R_Toe2_03 R_Toe2_02
R_Toe3_02 R_Toe3_01
R_Toe3_03 R_Toe3_02
Rear_Leg02 Rear_Leg01
Rear_Leg03 Rear_Leg02
Rear_Leg04 Rear_Leg03
Rear_Foot Rear_Leg04
planeAlignerCenter Rear_Foot
Rear_Toe1_01 Rear_Foot
Rear_Toe2_01 Rear_Foot
Rear_Toe3_01 Rear_Foot
planeLockWeightCenter planeAlignerCenter
Rear_Toe1_02 Rear_Toe1_01
Rear_Toe1_03 Rear_Toe1_02
Rear_Toe2_02 Rear_Toe2_01
Rear_Toe2_03 Rear_Toe2_02
Rear_Toe3_02 Rear_Toe3_01
Rear_Toe3_03 Rear_Toe3_02
Back_Bone Spine1
Head Spine1
Motor_Bone Back_Bone
Ping_Mechanism Back_Bone
BN_LookIK Head
bottomMouth Head
L_Mouth01 Head
L_mouthFront Head
mouthGun Head
R_Mouth01 Head
R_mouthFront Head
TopMouth Head
weapon_bone Head
[BasePosition]
#SegmentName Tx, Ty, Tz, Rx, Ry, Rz, BoneLength
Pinger_Root 0.000000 0.000000 0.000000 -90.000000 0.000000 0.000000 10.000000 
Pelvis 0.000000 0.000000 0.000000 0.000000 0.000000 0.000000 10.000000 
L_Hip 0.000000 0.000000 0.000000 0.000000 0.000000 0.000000 10.000000 
R_Hip 0.000000 0.000000 0.000000 0.000000 0.000000 0.000000 10.000000 
Rear_Leg01 0.000000 0.000000 0.000000 0.000000 0.000000 0.000000 10.000000 
Spine1 0.000000 0.000000 0.000000 0.000000 0.000000 0.000000 10.000000 
L_Leg01 0.000000 0.000000 0.000000 0.000000 0.000000 0.000000 10.000000 
L_Leg02 0.000000 0.000000 0.000000 0.000000 0.000000 0.000000 10.000000 
L_Leg03 0.000000 0.000000 0.000000 0.000000 0.000000 0.000000 10.000000 
L_Foot 0.000000 0.000000 0.000000 0.000000 0.000000 0.000000 10.000000 
L_Toe1_01 0.000000 0.000000 0.000000 0.000000 0.000000 0.000000 10.000000 
L_Toe2_01 0.000000 0.000000 0.000000 0.000000 0.000000 0.000000 10.000000 
L_Toe3_01 0.000000 0.000000 0.000000 0.000000 0.000000 0.000000 10.000000 
planeAlignerLeft 0.000000 0.000000 0.000000 0.000000 0.000000 0.000000 10.000000 
L_Toe1_02 0.000000 0.000000 0.000000 0.000000 0.000000 0.000000 10.000000 
L_Toe1_03 0.000000 0.000000 0.000000 0.000000 0.000000 0.000000 10.000000 
L_Toe2_02 0.000000 0.000000 0.000000 0.000000 0.000000 0.000000 10.000000 
L_Toe2_03 0.000000 0.000000 0.000000 0.000000 0.000000 0.000000 10.000000 
L_Toe3_02 0.000000 0.000000 0.000000 0.000000 0.000000 0.000000 10.000000 
L_Toe3_03 0.000000 0.000000 0.000000 0.000000 0.000000 0.000000 10.000000 
planeLockWeightLeft 0.000000 0.000000 0.000000 0.000000 0.000000 0.000000 10.000000 
R_Leg01 0.000000 0.000000 0.000000 0.000000 0.000000 0.000000 10.000000 
R_Leg02 0.000000 0.000000 0.000000 0.000000 0.000000 0.000000 10.000000 
R_Leg03 0.000000 0.000000 0.000000 0.000000 0.000000 0.000000 10.000000 
R_Foot 0.000000 0.000000 0.000000 0.000000 0.000000 0.000000 10.000000 
planeAlignerRight 0.000000 0.000000 0.000000 0.000000 0.000000 0.000000 10.000000 
R_Toe1_01 0.000000 0.000000 0.000000 0.000000 0.000000 0.000000 10.000000 
R_Toe2_01 0.000000 0.000000 0.000000 0.000000 0.000000 0.000000 10.000000 
R_Toe3_01 0.000000 0.000000 0.000000 0.000000 0.000000 0.000000 10.000000 
planeLockWeightRight 0.000000 0.000000 0.000000 0.000000 0.000000 0.000000 10.000000 
R_Toe1_02 0.000000 0.000000 0.000000 0.000000 0.000000 0.000000 10.000000 
R_Toe1_03 0.000000 0.000000 0.000000 0.000000 0.000000 0.000000 10.000000 
R_Toe2_02 0.000000 0.000000 0.000000 0.000000 0.000000 0.000000 10.000000 
R_Toe2_03 0.000000 0.000000 0.000000 0.000000 0.000000 0.000000 10.000000 
R_Toe3_02 0.000000 0.000000 0.000000 0.000000 0.000000 0.000000 10.000000 
R_Toe3_03 0.000000 0.000000 0.000000 0.000000 0.000000 0.000000 10.000000 
Rear_Leg02 0.000000 0.000000 0.000000 0.000000 0.000000 0.000000 10.000000 
Rear_Leg03 0.000000 0.000000 0.000000 0.000000 0.000000 0.000000 10.000000 
Rear_Leg04 0.000000 0.000000 0.000000 0.000000 0.000000 0.000000 10.000000 
Rear_Foot 0.000000 0.000000 0.000000 0.000000 0.000000 0.000000 10.000000 
planeAlignerCenter 0.000000 0.000000 0.000000 0.000000 0.000000 0.000000 10.000000 
Rear_Toe1_01 0.000000 0.000000 0.000000 0.000000 0.000000 0.000000 10.000000 
Rear_Toe2_01 0.000000 0.000000 0.000000 0.000000 0.000000 0.000000 10.000000 
Rear_Toe3_01 0.000000 0.000000 0.000000 0.000000 0.000000 0.000000 10.000000 
planeLockWeightCenter 0.000000 0.000000 0.000000 0.000000 0.000000 0.000000 10.000000 
Rear_Toe1_02 0.000000 0.000000 0.000000 0.000000 0.000000 0.000000 10.000000 
Rear_Toe1_03 0.000000 0.000000 0.000000 0.000000 0.000000 0.000000 10.000000 
Rear_Toe2_02 0.000000 0.000000 0.000000 0.000000 0.000000 0.000000 10.000000 
Rear_Toe2_03 0.000000 0.000000 0.000000 0.000000 0.000000 0.000000 10.000000 
Rear_Toe3_02 0.000000 0.000000 0.000000 0.000000 0.000000 0.000000 10.000000 
Rear_Toe3_03 0.000000 0.000000 0.000000 0.000000 0.000000 0.000000 10.000000 
Back_Bone 0.000000 0.000000 0.000000 0.000000 0.000000 0.000000 10.000000 
Head 0.000000 0.000000 0.000000 0.000000 0.000000 0.000000 10.000000 
Motor_Bone 0.000000 0.000000 0.000000 0.000000 0.000000 0.000000 10.000000 
Ping_Mechanism 0.000000 0.000000 0.000000 0.000000 0.000000 0.000000 10.000000 
BN_LookIK 0.000000 0.000000 0.000000 0.000000 0.000000 0.000000 10.000000 
bottomMouth 0.000000 0.000000 0.000000 0.000000 0.000000 0.000000 10.000000 
L_Mouth01 0.000000 0.000000 0.000000 0.000000 0.000000 0.000000 10.000000 
L_mouthFront 0.000000 0.000000 0.000000 0.000000 0.000000 0.000000 10.000000 
mouthGun 0.000000 0.000000 0.000000 0.000000 0.000000 0.000000 10.000000 
R_Mouth01 0.000000 0.000000 0.000000 0.000000 0.000000 0.000000 10.000000 
R_mouthFront 0.000000 0.000000 0.000000 0.000000 0.000000 0.000000 10.000000 
TopMouth 0.000000 0.000000 0.000000 0.000000 0.000000 0.000000 10.000000 
weapon_bone 0.000000 0.000000 0.000000 0.000000 0.000000 0.000000 10.000000 
#Beginning of Data. Separated by tabs
#Fr	Tx	Ty	Tz	Rx	Ry	Rz	SF
[Pinger_Root]
36 -2499.999756 -0.000690 0.000000 -0.000075 -0.000000 -0.000020 2499.999756
37 -2499.999756 -0.000690 0.000000 -0.000075 -0.000000 -0.000020 2499.999756
38 -2499.999756 -0.000690 0.000000 -0.000075 -0.000000 -0.000020 2499.999756
[Pelvis]
36 74.672859 436.094177 4308.804199 -99.378937 -83.441177 150.669189 4331.460449
37 37.132214 484.233795 4333.994629 -108.079819 -81.431633 157.866943 4361.120605
38 1.818482 530.818970 4361.440918 -111.595230 -79.554749 158.950256 4393.625000
[L_Hip]
36 5.766392 125.831482 872.656799 -178.253311 -81.787758 87.381340 881.701050
37 5.766392 125.831482 872.656799 -178.253311 -81.787712 87.381248 881.701050
38 5.766392 125.831482 872.656799 -178.253342 -81.787758 87.381340 881.701050
[R_Hip]
36 5.765438 125.836372 -872.654907 -1.746690 81.787712 87.381248 881.699829
37 5.765438 125.836372 -872.654907 -1.746713 81.787666 87.381149 881.699829
38 5.765438 125.836372 -872.654907 -1.746678 81.787712 87.381248 881.699829
[Rear_Leg01]
36 -192.298416 -925.602966 -0.001907 -169.703476 2.937870 -157.102905 945.367432
37 -192.298416 -925.602966 -0.001907 -170.534042 1.884080 -158.575226 945.367432
38 -192.298416 -925.602966 -0.001907 -171.949753 1.879781 -159.657715 945.367432
[Spine1]
36 290.604584 5.007505 0.000477 -37.569096 18.961494 14.090054 290.647736
37 290.604584 5.007505 0.000477 -35.749794 19.932470 12.854580 290.647736
38 290.604584 5.007505 0.000477 -33.162563 20.184151 11.919129 290.647736
[L_Leg01]
36 761.932007 -0.002384 -0.069261 142.188782 -43.267067 -122.753403 761.932068
37 761.932007 -0.002384 -0.069261 136.024277 -41.819145 -112.271034 761.932068
38 761.932007 -0.002384 -0.069261 128.675568 -39.430653 -102.705559 761.932068
[L_Leg02]
36 1441.140503 -0.000954 -0.000715 5.431434 0.777316 -138.155167 1441.140503
37 1441.140503 -0.000954 -0.000715 5.074889 0.947392 -123.559479 1441.140503
38 1441.140503 -0.000954 -0.000715 4.150484 0.579250 -104.991188 1441.140503
[L_Leg03]
36 1686.963989 -0.000715 -0.000954 -0.076059 0.039542 130.880859 1686.963989
37 1686.963989 -0.000715 -0.000954 -0.088081 0.046539 133.612289 1686.963989
38 1686.963989 -0.000715 -0.000954 -0.082195 0.042796 132.009460 1686.963989
[L_Foot]
36 3041.570068 -30.715107 11.297464 0.131423 9.840626 34.177723 3041.746094
37 3041.570068 -30.715107 11.297464 2.117946 10.231133 33.215641 3041.746094
38 3041.570068 -30.715107 11.297464 4.191471 10.266392 32.147537 3041.746094
[L_Toe1_01]
36 -188.216690 -224.732346 -21.137953 88.517227 -1.204236 -140.222458 293.899567
37 -188.216690 -224.732346 -21.137953 88.648354 -1.614375 -139.949860 293.899567
38 -188.216690 -224.732346 -21.137953 88.777550 -2.025124 -139.678116 293.899567
[L_Toe2_01]
36 200.746536 -219.926590 148.838394 -73.396889 -3.343846 -75.558098 332.896027
37 200.746536 -219.926590 148.838394 -73.449059 -3.599808 -74.869423 332.896027
38 200.746536 -219.926590 148.838394 -73.504318 -3.855118 -74.180321 332.896027
[L_Toe3_01]
36 188.832520 -219.859131 -191.078659 -111.322342 5.058855 -76.792366 347.140900
37 188.832520 -219.859131 -191.078659 -111.046066 4.568499 -75.983543 347.140900
38 188.832520 -219.859131 -191.078659 -110.776863 4.074244 -75.177505 347.140900
[planeAlignerLeft]
36 10.469172 -775.221497 -6.386022 0.000000 -89.897209 -90.094627 775.318542
37 41.241638 -772.081543 -3.129462 0.000000 -89.895325 -90.097290 773.188599
38 72.014000 -768.941650 0.127056 0.000000 -89.888092 -90.099945 772.306458
[L_Toe1_02]
36 413.761139 0.000477 0.000000 0.001456 -17.442154 0.001456 413.761139
37 413.761139 0.000477 0.000000 0.001460 -16.958981 0.001460 413.761139
38 413.761139 0.000477 0.000000 0.001465 -16.475777 0.001465 413.761139
[L_Toe1_03]
36 464.317322 0.000358 -0.000089 -179.994278 81.168602 -179.990768 464.317322
37 464.317322 0.000358 -0.000089 -179.995331 79.728813 -179.991821 464.317322
38 464.317322 0.000358 -0.000089 -179.996124 78.288361 -179.992599 464.317322
[L_Toe2_02]
36 342.235809 -0.000477 0.000238 0.001180 -78.080910 0.001180 342.235809
37 342.235809 -0.000477 0.000238 0.001180 -77.783844 0.001180 342.235809
38 342.235809 -0.000477 0.000238 0.001181 -77.486786 0.001181 342.235809
[L_Toe2_03]
36 420.210846 -0.000715 0.000000 -179.997223 75.452347 -179.993698 420.210846
37 420.210846 -0.000715 0.000000 -179.996872 76.474335 -179.993347 420.210846
38 420.210846 -0.000715 0.000000 -179.996368 77.758224 -179.992844 420.210846
[L_Toe3_02]
36 329.270111 0.000954 0.000000 0.001177 -81.536011 0.001177 329.270111
37 329.270111 0.000954 0.000000 0.001177 -81.370255 0.001177 329.270111
38 329.270111 0.000954 0.000000 0.001177 -81.204460 0.001177 329.270111
[L_Toe3_03]
36 439.137451 -0.001907 0.000954 -179.997742 73.593124 -179.994202 439.137451
37 439.137451 -0.001907 0.000954 -179.997543 74.344368 -179.994019 439.137451
38 439.137451 -0.001907 0.000954 -179.997330 75.095589 -179.993805 439.137451
[planeLockWeightLeft]
36 0.000153 0.000038 -0.000324 -0.011826 -0.004376 0.005620 0.000360
37 0.000134 0.000029 -0.000339 -0.011826 -0.004376 0.005620 0.000365
38 0.000114 0.000019 -0.000353 -0.011826 -0.004376 0.005620 0.000371
[R_Leg01]
36 761.455627 -0.001907 -0.000358 121.808846 2.780589 62.790997 761.455688
37 761.455627 -0.001907 -0.000358 122.895592 1.039930 64.831589 761.455688
38 761.455627 -0.001907 -0.000358 122.989922 0.089081 66.757507 761.455688
[R_Leg02]
36 1441.140625 0.000000 -0.000238 -0.003029 0.018385 -108.709534 1441.140625
37 1441.140625 0.000000 -0.000238 0.006218 0.005641 -107.229828 1441.140625
38 1441.140625 0.000000 -0.000238 0.013687 0.031095 -104.446297 1441.140625
[R_Leg03]
36 1686.963989 0.000954 0.001431 0.009153 -0.001865 113.029907 1686.963989
37 1686.963989 0.000954 0.001431 0.011876 -0.005999 113.130692 1686.963989
38 1686.963989 0.000954 0.001431 0.014766 -0.006709 113.965919 1686.963989
[R_Foot]
36 3041.560059 -30.531288 -11.204481 40.225571 -43.602547 47.408646 3041.734131
37 3041.560059 -30.531288 -11.204481 38.550240 -42.639008 47.947121 3041.734131
38 3041.560059 -30.531288 -11.204481 37.134235 -41.407448 47.690063 3041.734131
[planeAlignerRight]
36 -72.520073 -619.313843 -224.094513 0.000000 -89.891647 -90.071693 662.591248
37 -54.418846 -643.315247 -175.046021 0.000000 -89.889854 -90.073608 668.922241
38 -49.016193 -669.128296 -155.359024 0.000000 -89.888092 -90.075516 688.673889
[R_Toe1_01]
36 -188.383347 -224.864899 21.052242 90.694099 6.507167 -157.774170 294.101532
37 -188.383347 -224.864899 21.052242 90.710655 4.227876 -157.358810 294.101532
38 -188.383347 -224.864899 21.052242 90.807358 3.271699 -155.710205 294.101532
[R_Toe2_01]
36 200.637817 -220.002121 -148.787384 -101.996468 11.347285 -45.537388 332.857574
37 200.637817 -220.002121 -148.787384 -101.425697 8.258076 -46.674873 332.857574
38 200.637817 -220.002121 -148.787384 -101.460861 6.947820 -48.277042 332.857574
[R_Toe3_01]
36 188.606735 -220.092957 191.126343 -66.311806 -33.353031 -55.830425 347.192566
37 188.606735 -220.092957 191.126343 -63.959545 -33.292240 -59.554920 347.192566
38 188.606735 -220.092957 191.126343 -62.875381 -32.624733 -62.107655 347.192566
[planeLockWeightRight]
36 999.999573 0.000555 -0.000222 -0.011823 -0.004379 -0.000027 999.999573
37 999.999573 0.000549 -0.000231 -0.011823 -0.004379 -0.000027 999.999573
38 999.999573 0.000544 -0.000240 -0.011823 -0.004379 -0.000027 999.999573
[R_Toe1_02]
36 413.762085 0.000477 -0.000119 0.001384 -25.946947 0.001384 413.762085
37 413.762085 0.000477 -0.000119 0.001384 -25.931728 0.001384 413.762085
38 413.762085 0.000477 -0.000119 0.001385 -25.916502 0.001385 413.762085
[R_Toe1_03]
36 464.317810 0.000000 0.001088 0.004061 56.407429 0.004061 464.317810
37 464.317810 0.000000 0.001088 0.004429 59.266529 0.004429 464.317810
38 464.317810 0.000000 0.001088 0.004265 58.058212 0.004265 464.317810
[R_Toe2_02]
36 342.234741 -0.000954 0.000238 -0.000228 -72.712990 -0.000228 342.234741
37 342.234741 -0.000954 0.000238 0.000481 -71.628197 0.000481 342.234741
38 342.234741 -0.000954 0.000238 0.001191 -70.543686 0.001191 342.234741
[R_Toe2_03]
36 420.210846 0.000715 -0.000268 0.021537 86.766022 0.020370 420.210846
37 420.210846 0.000715 -0.000268 0.021306 83.684776 0.021306 420.210846
38 420.210846 0.000715 -0.000268 0.014742 80.867477 0.014742 420.210846
[R_Toe3_02]
36 329.270355 -0.000477 -0.000954 0.001177 -81.762833 0.001177 329.270355
37 329.270355 -0.000477 -0.000954 0.001178 -79.621361 0.001178 329.270355
38 329.270355 -0.000477 -0.000954 0.001180 -77.954529 0.001180 329.270355
[R_Toe3_03]
36 439.137939 0.000238 0.001431 -179.997910 72.927864 -179.994370 439.137939
37 439.137939 0.000238 0.001431 -179.993698 81.826027 -179.990189 439.137939
38 439.137939 0.000238 0.001431 -179.996094 86.970108 -179.993469 439.137939
[Rear_Leg02]
36 1162.777710 -0.029802 0.005960 -45.510132 11.833579 -139.733673 1162.777710
37 1162.777710 -0.029802 0.005960 -45.054512 15.050358 -137.239105 1162.777710
38 1162.777710 -0.029802 0.005960 -44.332870 18.318422 -133.841049 1162.777710
[Rear_Leg03]
36 607.192505 -0.013351 -0.073195 0.009899 -0.006178 80.292511 607.192505
37 607.192505 -0.013351 -0.073195 0.009927 -0.006133 79.769432 607.192505
38 607.192505 -0.013351 -0.073195 0.009955 -0.006087 79.246361 607.192505
[Rear_Leg04]
36 995.874512 -0.020504 -0.011921 -0.042040 -0.015576 105.159935 995.874573
37 995.874512 -0.020504 -0.011921 -0.042651 -0.015503 101.886055 995.874573
38 995.874512 -0.020504 -0.011921 -0.043266 -0.015465 98.609489 995.874573
[Rear_Foot]
36 3096.176270 -0.067472 -0.041425 82.307159 42.793598 -123.807533 3096.176270
37 3096.176270 -0.067472 -0.041425 81.285385 42.353729 -124.937943 3096.176270
38 3096.176270 -0.067472 -0.041425 80.282631 41.899216 -126.049667 3096.176270
[planeAlignerCenter]
36 5.834854 65.660439 -749.786438 0.001729 -0.001588 175.156235 752.678589
37 5.190342 70.504028 -740.467346 0.001713 -0.001605 176.291351 743.834412
38 4.545832 75.347595 -731.148315 0.001697 -0.001622 177.426346 735.034546
[Rear_Toe1_01]
36 0.653352 83.966492 -371.173737 -0.085578 24.524899 84.812584 380.553192
37 0.653352 83.966492 -371.173737 -0.055176 24.005812 86.146744 380.553192
38 0.653352 83.966492 -371.173737 -0.020252 23.625296 87.089554 380.553192
[Rear_Toe2_01]
36 178.200760 -294.826019 -362.060547 -0.373962 49.792080 -77.225143 499.765686
37 178.200760 -294.826019 -362.060547 -0.022187 49.236797 -75.562355 499.765686
38 178.200760 -294.826019 -362.060547 0.301174 48.675045 -73.922958 499.765686
[Rear_Toe3_01]
36 -153.359680 -308.780914 -362.060852 -2.475542 49.817581 -119.618294 499.952881
37 -153.359680 -308.780914 -362.060852 -2.213122 49.252270 -118.173859 499.952881
38 -153.359680 -308.780914 -362.060852 -1.975320 48.682804 -116.749573 499.952881
[planeLockWeightCenter]
36 1000.000244 0.000698 -0.000173 -0.011814 -0.004373 -0.000015 1000.000244
37 1000.000244 0.000704 -0.000176 -0.011814 -0.004373 -0.000015 1000.000244
38 1000.000122 0.000710 -0.000178 -0.011814 -0.004373 -0.000015 1000.000122
[Rear_Toe1_02]
36 379.707825 0.194073 0.000477 -0.002666 -33.551311 0.002537 379.707855
37 379.707825 0.194073 0.000477 -0.002876 -33.550163 0.002601 379.707855
38 379.707825 0.194073 0.000477 -0.003087 -33.549011 0.002664 379.707855
[Rear_Toe1_03]
36 500.129700 0.165701 0.000119 0.007257 71.385506 0.007257 500.129761
37 500.129700 0.165701 0.000119 0.007225 71.303062 0.007225 500.129761
38 500.129700 0.165701 0.000119 0.007194 71.220627 0.007194 500.129761
[Rear_Toe2_02]
36 340.494507 0.000238 -0.000954 0.001176 -82.559296 0.001176 340.494507
37 340.494507 0.000238 -0.000954 0.001176 -83.349251 0.001176 340.494507
38 340.494507 0.000238 -0.000954 0.001175 -84.139099 0.001175 340.494507
[Rear_Toe2_03]
36 433.103577 0.000000 0.000238 179.956650 86.896248 179.956650 433.103546
37 433.103577 0.000000 0.000238 179.972610 85.088173 179.972610 433.103546
38 433.103577 0.000000 0.000238 179.979980 83.280487 179.979980 433.103546
[Rear_Toe3_02]
36 340.494141 -0.000358 -0.000477 0.001176 -83.103996 0.001176 340.494171
37 340.494141 -0.000358 -0.000477 0.001175 -83.617065 0.001175 340.494171
38 340.494141 -0.000358 -0.000477 0.001175 -84.129982 0.001175 340.494171
[Rear_Toe3_03]
36 433.103577 0.001431 -0.000238 -179.986359 85.719200 -179.982864 433.103546
37 433.103577 0.001431 -0.000238 -179.990005 84.388847 -179.986511 433.103546
38 433.103577 0.001431 -0.000238 -179.992264 83.058350 -179.988754 433.103546
[Back_Bone]
36 1312.175781 -701.934692 0.000954 -2.918326 3.030816 -88.416695 1488.125488
37 1312.175781 -701.934692 0.000954 -2.914956 3.106460 -88.196625 1488.125488
38 1312.175781 -701.934692 0.000954 -2.911291 3.182088 -87.976494 1488.125488
[Head]
36 1406.159424 809.709290 0.001431 -9.032213 2.915958 -0.605862 1622.625488
37 1406.159424 809.709290 0.001431 -8.970008 2.919202 -0.693834 1622.625488
38 1406.159424 809.709290 0.001431 -8.907806 2.922541 -0.781802 1622.625488
[Motor_Bone]
36 1158.364380 -417.834747 0.000477 5.388104 -1.720919 -107.705574 1231.419434
37 1158.364380 -417.834747 0.000477 -0.064415 0.133392 -105.853745 1231.419434
38 1158.364380 -417.834747 0.000477 -5.513572 1.191229 -104.796593 1231.419434
[Ping_Mechanism]
36 1236.022461 -439.223633 -25.135576 0.000103 -0.000053 82.120995 1311.983521
37 1238.717285 -437.884552 -37.502110 0.000103 -0.000053 82.120995 1314.370605
38 1244.428589 -438.548859 -44.453018 0.000103 -0.000053 82.120995 1320.190796
[BN_LookIK]
36 193.241119 1380.371704 -0.002861 0.000000 89.965736 -31.038179 1393.832153
37 193.241119 1380.371704 -0.002861 0.000000 89.965736 -31.038179 1393.832153
38 193.241119 1380.371704 -0.002861 0.000000 89.965736 -31.038179 1393.832153
[bottomMouth]
36 -435.092926 615.759399 -0.000954 -0.000022 0.000016 73.527184 753.966492
37 -435.092926 615.759399 -0.000954 -0.000022 0.000016 73.527184 753.966492
38 -435.092926 615.759399 -0.000954 -0.000022 0.000016 73.527184 753.966492
[L_Mouth01]
36 554.440979 7.658243 838.222046 150.204178 23.759130 109.605339 1005.027161
37 554.440979 7.658243 838.222046 150.204178 23.759130 109.605339 1005.027161
38 554.440979 7.658243 838.222046 150.204178 23.759130 109.605339 1005.027161
[L_mouthFront]
36 551.629089 934.514771 339.150421 0.000081 2.804060 79.119301 1136.941284
37 551.629089 934.514771 339.150421 0.000081 2.804060 79.119301 1136.941284
38 551.629089 934.514771 339.150421 0.000081 2.804060 79.119301 1136.941284
[mouthGun]
36 55.332661 1627.420898 0.000000 0.000023 0.000009 -11.038128 1628.361328
37 55.332661 1627.420898 0.000000 0.000023 0.000009 -11.038128 1628.361328
38 55.332661 1627.420898 0.000000 0.000023 0.000009 -11.038128 1628.361328
[R_Mouth01]
36 554.442383 7.659197 -838.223938 29.795891 -23.759109 109.605331 1005.029541
37 554.442383 7.659197 -838.223938 29.795891 -23.759109 109.605331 1005.029541
38 554.442383 7.659197 -838.223938 29.795891 -23.759109 109.605331 1005.029541
[R_mouthFront]
36 551.629089 934.514282 -339.151367 0.000029 -2.803930 79.119133 1136.941162
37 551.629089 934.514282 -339.151367 0.000029 -2.803930 79.119133 1136.941162
38 551.629089 934.514282 -339.151367 0.000029 -2.803930 79.119133 1136.941162
[TopMouth]
36 461.269867 -56.106091 -0.008583 -0.000059 -0.000268 92.025169 464.669525
37 461.269867 -56.106091 -0.008583 -0.000059 -0.000268 92.025169 464.669525
38 461.269867 -56.106091 -0.008583 -0.000059 -0.000268 92.025169 464.669525
[weapon_bone]
36 -987.239868 1448.372803 0.001431 0.000000 89.965736 -31.038221 1752.833740
37 -987.239868 1448.372803 0.001431 0.000000 89.965736 -31.038221 1752.833740
38 -987.239868 1448.372803 0.001431 0.000000 89.965736 -31.038221 1752.833740
